<svg width="30" height="29" viewBox="0 0 30 29" fill="none" xmlns="http://www.w3.org/2000/svg">
<g id="Group 29">
<path id="Rectangle 2" d="M0 2.5C0 3.88071 1.11929 5 2.5 5H27.5C28.8807 5 30 3.88071 30 2.5C30 1.11929 28.8807 0 27.5 0H2.5C1.11929 0 0 1.11929 0 2.5Z" fill="#E6E6E6"/>
<path id="Rectangle 3" d="M11 26.5C11 27.8807 12.1193 29 13.5 29H27.5C28.8807 29 30 27.8807 30 26.5C30 25.1193 28.8807 24 27.5 24H13.5C12.1193 24 11 25.1193 11 26.5Z" fill="#E6E6E6"/>
<path id="Rectangle 1" d="M0 14.5C0 15.8807 1.11929 17 2.5 17H27.5C28.8807 17 30 15.8807 30 14.5C30 13.1193 28.8807 12 27.5 12H2.5C1.11929 12 0 13.1193 0 14.5Z" fill="#E6E6E6"/>
</g>
</svg>
