<svg width="32" height="35" viewBox="0 0 32 35" fill="none" xmlns="http://www.w3.org/2000/svg">
<path d="M16.0643 0.250977C7.28442 0.250977 0.128643 7.86714 0.128643 17.2119C0.128643 20.207 0.868342 23.1166 2.25126 25.6838L0 34.4809L8.44221 32.1191C10.7739 33.4712 13.395 34.19 16.0643 34.19C24.8442 34.19 32 26.5738 32 17.229C32 12.6936 30.3437 8.43194 27.3367 5.23144C24.3296 2.01382 20.3256 0.250977 16.0643 0.250977ZM16.0804 3.10918C19.6181 3.10918 22.9307 4.58107 25.4392 7.251C27.9317 9.92094 29.3146 13.4637 29.3146 17.229C29.3146 24.9992 23.3648 31.3147 16.0643 31.3147C13.6844 31.3147 11.3528 30.6472 9.32663 29.3464L8.84422 29.0555L3.82714 30.4589L5.16181 25.256L4.8402 24.7083C3.52161 22.5005 2.81407 19.8819 2.81407 17.2119C2.83015 9.44172 8.76382 3.10918 16.0804 3.10918ZM10.4201 9.37326C10.1628 9.37326 9.72864 9.47595 9.35879 9.90383C9.00502 10.3317 7.9598 11.3757 7.9598 13.4466C7.9598 15.5347 9.39095 17.5371 9.56784 17.8281C9.79296 18.119 12.398 22.3978 16.402 24.212C17.3508 24.6741 18.0905 24.9308 18.6693 25.119C19.6181 25.4442 20.4864 25.3929 21.1779 25.2902C21.9497 25.1704 23.5256 24.2633 23.8633 23.2706C24.201 22.278 24.201 21.4393 24.1045 21.2511C23.992 21.0799 23.7347 20.9772 23.3327 20.789C22.9307 20.5493 20.9688 19.5224 20.6151 19.3855C20.2452 19.2486 20.0201 19.1801 19.7146 19.5909C19.4573 20.0188 18.6854 20.9772 18.4603 21.2511C18.2191 21.542 17.994 21.5762 17.608 21.3709C17.1899 21.1484 15.9035 20.7034 14.392 19.2657C13.202 18.1361 12.4141 16.7498 12.1729 16.3219C11.9799 15.9112 12.1568 15.6545 12.3497 15.4662C12.5266 15.2779 12.7839 14.9699 12.9447 14.7131C13.1538 14.4735 13.2181 14.2853 13.3467 14.0114C13.4754 13.7205 13.4111 13.4809 13.3146 13.2755C13.2181 13.0872 12.4141 10.965 12.0764 10.1263C11.7548 9.3048 11.4332 9.40749 11.1759 9.39038C10.9508 9.39038 10.6935 9.37326 10.4201 9.37326Z" fill="#E6E6E6"/>
</svg>
